<svg id="Layer_1" data-name="Layer 1" xmlns="http://www.w3.org/2000/svg" xmlns:xlink="http://www.w3.org/1999/xlink" viewBox="0 0 1366 768"><defs><style>.cls-1{fill:url(#linear-gradient);}</style><linearGradient id="linear-gradient" x1="697.5" y1="508.13" x2="697.5" y2="893.68" gradientUnits="userSpaceOnUse"><stop offset="0" stop-color="#a57fff"/><stop offset="1" stop-color="#74e9ff"/></linearGradient></defs><path class="cls-1" d="M1394,561a198.1,198.1,0,0,0-99.5,26.63,199.2,199.2,0,0,0-199,0,199.2,199.2,0,0,0-199,0,199.2,199.2,0,0,0-199,0,199.2,199.2,0,0,0-199,0,199.2,199.2,0,0,0-199,0,199.2,199.2,0,0,0-199,0A198.1,198.1,0,0,0,1,561c-109.9,0-199,89.1-199,199S-108.9,959,1,959a198.1,198.1,0,0,0,99.5-26.63,199.2,199.2,0,0,0,199,0,199.2,199.2,0,0,0,199,0,199.2,199.2,0,0,0,199,0,199.2,199.2,0,0,0,199,0,199.2,199.2,0,0,0,199,0,199.2,199.2,0,0,0,199,0A198.1,198.1,0,0,0,1394,959c109.9,0,199-89.1,199-199S1503.9,561,1394,561Z"/></svg>