<svg xmlns="http://www.w3.org/2000/svg" xmlns:xlink="http://www.w3.org/1999/xlink" viewBox="0 0 243.24 151.34"><defs><style>.cls-1{fill:url(#linear-gradient);}</style><linearGradient id="linear-gradient" x1="121.36" y1="1.47" x2="121.84" y2="180.09" gradientUnits="userSpaceOnUse"><stop offset="0" stop-color="#9c92ff"/><stop offset="1" stop-color="#74e9ff"/></linearGradient></defs><g id="Layer_2" data-name="Layer 2"><g id="Layer_1-2" data-name="Layer 1"><path class="cls-1" d="M201.81,52.18c-4.33-19.49-21.35-34-41.69-34a41.8,41.8,0,0,0-18.26,4.18A47.7,47.7,0,0,0,101.64,0c-25.88,0-47,21-48,47.22-.93,0-1.87-.08-2.81-.08C22.77,47.14,0,70.47,0,99.24s22.77,52.1,50.86,52.1a49.6,49.6,0,0,0,20-4.19,40.74,40.74,0,0,0,42-3.86A42.34,42.34,0,0,0,164,140.11a47.69,47.69,0,0,0,30.63,11.13c26.85,0,48.61-22.3,48.61-49.8C243.24,76.44,225.26,55.74,201.81,52.18Z"/></g></g></svg>